Coordinates
version=1
nRows=29
nColumns=24
inDegrees=yes

Units are S.I. units (second, meters, Newtons, ...)
Angles are in degrees.

endheader
time	pelvis_tilt	pelvis_list	pelvis_rotation	pelvis_tx	pelvis_ty	pelvis_tz	hip_flexion_r	hip_adduction_r	hip_rotation_r	knee_angle_r	ankle_angle_r	subtalar_angle_r	mtp_angle_r	hip_flexion_l	hip_adduction_l	hip_rotation_l	knee_angle_l	ankle_angle_l	subtalar_angle_l	mtp_angle_l	lumbar_extension	lumbar_bending	lumbar_rotation
      0.84133333	      2.05852699	      1.32255828	     -1.36057803	     -0.24438215	      1.02285759	      0.37035293	     -3.93695092	      1.04724251	      0.09740144	    -15.23976073	     12.24443181	     -5.22407520	      0.38474147	     18.77749499	      2.54602338	     -2.25753581	    -47.79924832	      6.53521118	    -10.07436303	     -0.93750650	    -14.43162262	      4.95169406	      3.71612005
      0.84550000	      2.05342730	      1.36717945	     -1.34417940	     -0.23936958	      1.02332802	      0.37037342	     -4.39600057	      0.99295627	      0.07831848	    -14.87520139	     11.98693148	     -5.27957510	      0.43338924	     18.89331360	      2.66432682	     -2.16919422	    -46.40014539	      6.69769960	    -10.08954917	     -0.98791129	    -14.47332540	      4.87043259	      3.79854525
      0.84966667	      2.02051567	      1.40101245	     -1.32331436	     -0.23436537	      1.02370768	      0.37037876	     -4.80656215	      0.94845980	      0.03433588	    -14.54986972	     11.71315132	     -5.30920586	      0.49358589	     19.02850754	      2.77110275	     -2.07068499	    -44.97819559	      6.82557050	    -10.08777814	     -1.04145820	    -14.47761442	      4.80787737	      3.85868630
      0.85383333	      1.99327666	      1.43080594	     -1.29631930	     -0.22935379	      1.02406230	      0.37036910	     -5.21857313	      0.90753055	     -0.02619001	    -14.23596157	     11.44409994	     -5.33012847	      0.55524013	     19.13817745	      2.87694273	     -1.95658266	    -43.51742059	      6.90158456	    -10.09140168	     -1.09087964	    -14.48218877	      4.74855861	      3.90093718
      0.85800000	      1.94667255	      1.47185131	     -1.26336906	     -0.22433393	      1.02436764	      0.37033610	     -5.60539187	      0.85350351	     -0.10258442	    -13.93017510	     11.17734062	     -5.34406724	      0.62901645	     19.24812212	      2.99865774	     -1.83374781	    -42.01294358	      6.91472399	    -10.12291385	     -1.14438341	    -14.47379584	      4.68680780	      3.93404851
      0.86216667	      1.89876969	      1.50679132	     -1.22794439	     -0.21930974	      1.02463647	      0.37029541	     -5.97311412	      0.80285493	     -0.22113048	    -13.66163267	     10.88153949	     -5.33495004	      0.67849511	     19.34258030	      3.10665666	     -1.72265119	    -40.47860262	      6.90585899	    -10.09529423	     -1.17924720	    -14.44746925	      4.63536175	      3.95655306
      0.86633333	      1.87230341	      1.53366320	     -1.18292735	     -0.21428110	      1.02488833	      0.37024717	     -6.38033945	      0.76711190	     -0.29732581	    -13.36382323	     10.64466546	     -5.33791039	      0.76154396	     19.39008380	      3.22157079	     -1.55494765	    -38.90173007	      6.81726869	    -10.17891114	     -1.22961547	    -14.46358590	      4.57844499	      3.96828116
      0.87050000	      1.82885164	      1.55941197	     -1.13493430	     -0.20922783	      1.02509959	      0.37017705	     -6.75901155	      0.72957688	     -0.40936326	    -13.08739425	     10.38597662	     -5.33837537	      0.85978255	     19.43490052	      3.32891696	     -1.40501722	    -37.29123801	      6.69804340	    -10.23509800	     -1.28177075	    -14.45273825	      4.54575839	      3.97200441
      0.87466667	      1.78316495	      1.57393358	     -1.08105064	     -0.20416057	      1.02524634	      0.37010665	     -7.13342338	      0.70620321	     -0.53530664	    -12.81987225	     10.14379220	     -5.32455242	      0.98539547	     19.46835921	      3.42070410	     -1.25480096	    -35.66224521	      6.54577695	    -10.29256913	     -1.33896323	    -14.42153554	      4.51278158	      3.96359780
      0.87883333	      1.72278120	      1.59175063	     -1.02631892	     -0.19908742	      1.02535480	      0.37002268	     -7.48050414	      0.67876887	     -0.66396702	    -12.57579946	      9.89212368	     -5.30838557	      1.12451507	     19.49264268	      3.51689338	     -1.09438837	    -33.99269105	      6.35123969	    -10.34790092	     -1.39459433	    -14.38492433	      4.48333735	      3.95222222
      0.88300000	      1.65984795	      1.60869667	     -0.97395985	     -0.19401196	      1.02542275	      0.36994072	     -7.81335457	      0.65229111	     -0.80565750	    -12.35521266	      9.62776190	     -5.29384051	      1.24891383	     19.50315450	      3.60584310	     -0.94690030	    -32.30092883	      6.13928826	    -10.36533736	     -1.43951903	    -14.36243072	      4.45986329	      3.93933361
      0.88716667	      1.60440674	      1.60330652	     -0.91563294	     -0.18889966	      1.02546412	      0.36985374	     -8.16017875	      0.65282236	     -0.93658680	    -12.12936239	      9.38904258	     -5.27558035	      1.40633101	     19.48235241	      3.67119296	     -0.78647298	    -30.58245257	      5.88200243	    -10.42532947	     -1.48728488	    -14.31382020	      4.44691121	      3.91893050
      0.89133333	      1.54673225	      1.60798507	     -0.86145852	     -0.18377977	      1.02545323	      0.36976201	     -8.48971602	      0.64072678	     -1.08381892	    -11.93551459	      9.15372014	     -5.24743695	      1.57786137	     19.44597452	      3.74228301	     -0.64210672	    -28.84259018	      5.60764401	    -10.46186109	     -1.53064454	    -14.27584213	      4.43533958	      3.89447339
      0.89550000	      1.50459399	      1.61120435	     -0.80612158	     -0.17861800	      1.02543331	      0.36966423	     -8.83978120	      0.63026417	     -1.23799415	    -11.73916507	      8.92486591	     -5.20606508	      1.77654570	     19.36899366	      3.80912320	     -0.50203845	    -27.07647905	      5.30110775	    -10.50357047	     -1.57110681	    -14.24774076	      4.41631334	      3.86986418
      0.89966667	      1.40519397	      1.59293167	     -0.75618791	     -0.17346855	      1.02526989	      0.36956681	     -9.10170799	      0.64339141	     -1.37705255	    -11.59777368	      8.69397094	     -5.18033299	      1.97936722	     19.35000240	      3.84697795	     -0.37319479	    -25.32434312	      4.99888799	    -10.50916118	     -1.60292529	    -14.16687829	      4.42734061	      3.84755660
      0.90383333	      1.34761463	      1.58505893	     -0.71101733	     -0.16827405	      1.02513910	      0.36947313	     -9.41317313	      0.64484988	     -1.51817728	    -11.45042662	      8.47798025	     -5.14025654	      2.19460838	     19.25954075	      3.89186600	     -0.26110031	    -23.54571685	      4.67992271	    -10.49898793	     -1.62794948	    -14.12515380	      4.42977538	      3.82797971
      0.90800000	      1.25732627	      1.54337082	     -0.64183049	     -0.16306012	      1.02490679	      0.36929983	     -9.67528400	      0.67806521	     -1.73302616	    -11.33718440	      8.26469202	     -4.98498607	      3.02440146	     19.19694274	      3.91658519	     -0.09244143	    -21.77821705	      4.28736697	    -10.59718899	     -1.66152807	    -14.03326042	      4.49309838	      3.81031785
      0.91216667	      1.23278056	      1.52314365	     -0.62193652	     -0.15779471	      1.02473518	      0.36926696	    -10.02290184	      0.69681434	     -1.79623579	    -11.19589588	      8.07998087	     -5.04539908	      3.31133225	     19.04300145	      3.92595629	     -0.06004941	    -20.01146509	      4.03362186	    -10.46402555	     -1.66547994	    -14.01823969	      4.48476894	      3.80766928
      0.91633333	      1.16936116	      1.48891719	     -0.60680614	     -0.15254828	      1.02444441	      0.36919736	    -10.27965811	      0.72044401	     -1.91604196	    -11.15698748	      7.87064132	     -5.01769728	      3.55895531	     18.92867087	      3.92515354	     -0.01366152	    -18.26830214	      3.73734849	    -10.38047621	     -1.66149106	    -13.97015839	      4.49980918	      3.80003483
      0.92050000	      1.10017506	      1.42493298	     -0.57285972	     -0.14725031	      1.02410930	      0.36909415	    -10.55446621	      0.78188440	     -2.02176538	    -11.07108659	      7.69297095	     -4.98068057	      3.91750376	     18.81499062	      3.90145484	      0.06227155	    -16.55714250	      3.43670974	    -10.31300672	     -1.63933499	    -13.89991898	      4.56816524	      3.81187605
      0.92466667	      1.01914732	      1.37594767	     -0.57616195	     -0.14194117	      1.02369421	      0.36900833	    -10.76016741	      0.80809763	     -2.17112405	    -11.09770217	      7.47735472	     -4.87004582	      8.31127088	     18.71514052	      3.87718700	      0.04771427	    -14.89319597	      3.17743554	    -10.16000026	     -1.15594766	    -13.81767382	      4.61718711	      3.79705248
      0.92883333	      0.97430326	      1.30937682	     -0.57171789	     -0.13660863	      1.02329488	      0.36895362	    -11.02400776	      0.86827041	     -2.24134638	    -11.09222575	      7.27675731	     -4.91750680	      8.33668306	     18.57289572	      3.83511573	      0.03934428	    -13.27515869	      2.97050350	     -9.94691538	     -1.15772042	    -13.77862865	      4.65774335	      3.83385953
      0.93300000	      0.91989464	      1.22960907	     -0.57930677	     -0.13125183	      1.02283527	      0.36888612	    -11.26122078	      0.93489388	     -2.31503497	    -11.12414069	      7.11966970	     -4.87012671	      8.39069223	     18.43998584	      3.78071298	      0.02799250	    -11.71182105	      2.77808271	     -9.75171362	     -1.14837555	    -13.72915292	      4.72943424	      3.86653273
      0.93716667	      0.81764422	      1.13954212	     -0.59062977	     -0.12586542	      1.02225956	      0.36881564	    -11.42742008	      1.00954176	     -2.38848982	    -11.20017590	      6.98465961	     -4.81101840	      8.42554487	     18.37774423	      3.71117612	     -0.03754653	    -10.24819165	      2.63061904	     -9.47143621	     -1.14168363	    -13.59598444	      4.81772308	      3.89031540
      0.94133333	      0.82265209	      1.07964877	     -0.62813283	     -0.12046062	      1.02179971	      0.36875831	    -11.69251382	      1.04092241	     -2.46273804	    -11.31189445	      6.85564287	     -4.72516664	      8.52546921	     18.16948293	      3.67773966	     -0.05713160	     -8.78736389	      2.49304792	     -9.29596751	     -1.11618279	    -13.63126264	      4.85856578	      3.94423987
      0.94550000	      0.74055276	      0.98991308	     -0.65871439	     -0.11503144	      1.02118858	      0.36869474	    -11.85432099	      1.10746486	     -2.51848686	    -11.44488398	      6.74072953	     -4.65328313	      8.58432076	     18.08708436	      3.61129626	     -0.11643421	     -7.45950161	      2.38919913	     -9.02566548	     -1.10154690	    -13.52120933	      4.94603396	      3.97505517
      0.94966667	      0.74875448	      0.93197314	     -0.71631683	     -0.10958813	      1.02066315	      0.36863954	    -12.08799758	      1.12518275	     -2.58889594	    -11.63234046	      6.63828704	     -4.53466080	      8.73905955	     17.89035936	      3.57952523	     -0.15156874	     -6.16860954	      2.32474821	     -8.83075914	     -1.06064594	    -13.56139702	      4.98163943	      4.04952954
      0.95383333	      0.66234592	      0.85381893	     -0.76566948	     -0.10411335	      1.01998528	      0.36858395	    -12.21346286	      1.17002951	     -2.63716679	    -11.83510072	      6.54138075	     -4.44888796	      8.83105805	     17.82530509	      3.52649066	     -0.20509953	     -5.01091747	      2.26517087	     -8.58125428	     -1.03791448	    -13.44643793	      5.05665388	      4.08730047
      0.95800000	      0.60710234	      0.78006139	     -0.83234767	     -0.09863740	      1.01932906	      0.36854162	    -12.34869255	      1.20227987	     -2.67554750	    -12.08646605	      6.45205889	     -4.34665759	      8.93821195	     17.73139565	      3.47697771	     -0.24748186	     -3.93856346	      2.24148588	     -8.35611067	     -1.01177106	    -13.37942784	      5.11100973	      4.13935530
